<svg version="1.1" xmlns="http://www.w3.org/2000/svg" viewBox="340 330 1370 1370">
<!-- Blue circle background -->
<path fill="rgb(165,206,229)" d="M 1005.59 361.135 C 1366.3 350.958 1666.96 635.109 1677.16 995.817 C 1687.36 1356.53 1403.23 1657.21 1042.52 1667.43 C 681.783 1677.65 381.066 1393.49 370.866 1032.75 C 360.666 672.012 644.847 371.312 1005.59 361.135 z"/>

<!-- Green duck half (gear replaced with smooth back curve) -->
<path fill="rgb(182,229,198)" d="M 1114.05 408.96 C 1256.14 426.26 1410.46 526.471 1497.64 637.793 C 1594.76 760.145 1638.81 916.302 1619.96 1071.37 C 1600.69 1228.35 1519.5 1371.12 1394.44 1467.92 C 1348.02 1504.05 1264.35 1554.01 1206.21 1565.68 C 1198.81 1571.05 1183.94 1574.67 1174.78 1577.17 C 1123.52 1591.17 1062.09 1599.28 1009.18 1597.71 C 995.139 1598.05 976.435 1599 962.669 1597.1 C 949.18 1597.44 925.999 1594.59 912.514 1592.71 C 832.115 1581.69 754.873 1554.13 685.656 1511.77 C 569.484 1439.54 474.616 1320.44 445.108 1185.99 C 422.278 1081.97 426.799 954.439 480.089 860.005 C 498.849 826.761 523.027 798.212 543.847 766.461 C 589.664 696.591 657.551 662.983 736.117 645.421 C 836 623 880 430 1000 400 C 1100 380 1130 700 1140.21 796.117 C 1155.37 840.085 1169 863.936 1212.93 886.205 C 1246.28 903.111 1258.25 903.404 1293.65 905.12 C 1320.44 895.13 1344.05 865.539 1355.23 840.093 C 1384.78 772.862 1380.08 687.907 1354.46 620.348 C 1321.65 534.618 1255.81 465.641 1171.69 428.881 C 1148.01 418.246 1136.75 416.694 1114.05 408.96 z"/>

<!-- Peach code half -->
<path fill="rgb(253,229,208)" d="M 1114.05 408.96 C 1256.14 426.26 1410.46 526.471 1497.64 637.793 C 1594.76 760.145 1638.81 916.302 1619.96 1071.37 C 1600.69 1228.35 1519.5 1371.12 1394.44 1467.92 C 1348.02 1504.05 1264.35 1554.01 1206.21 1565.68 C 1192.98 1565.81 1165.91 1570.77 1148.63 1571.92 C 1056.29 1578.08 939.539 1555.57 868.972 1492.14 C 824.498 1452.43 797.75 1396.58 794.685 1337.04 C 791.831 1271.83 815.157 1208.19 859.473 1160.26 C 881.148 1137.09 906.978 1118.18 935.624 1104.53 C 1009.89 1068.99 1074.49 1073.79 1153.91 1070.36 C 1160.19 1073.15 1176.72 1071.08 1184.1 1070.46 C 1219.62 1067.51 1253.91 1062.81 1287.74 1050.65 C 1323.3 1037.88 1370.74 1015.55 1388.22 979.822 C 1393.42 969.251 1395.75 954.616 1391.03 943.507 C 1374.93 905.611 1321.43 918.426 1293.65 905.12 C 1320.44 895.13 1344.05 865.539 1355.23 840.093 C 1384.78 772.862 1380.08 687.907 1354.46 620.348 C 1321.65 534.618 1255.81 465.641 1171.69 428.881 C 1148.01 418.246 1136.75 416.694 1114.05 408.96 z"/>

<!-- White duck body detail (duck only, gear removed) -->
<path fill="rgb(255,255,255)" d="M 1140.21 796.117 C 1155.37 840.085 1169 863.936 1212.93 886.205 C 1246.28 903.111 1258.25 903.404 1293.65 905.12 C 1321.43 918.426 1374.93 905.611 1391.03 943.507 C 1395.75 954.616 1393.42 969.251 1388.22 979.822 C 1370.74 1015.55 1323.3 1037.88 1287.74 1050.65 C 1253.91 1062.81 1219.62 1067.51 1184.1 1070.46 C 1176.72 1071.08 1160.19 1073.15 1153.91 1070.36 C 1226.88 1061.92 1297.79 1045.88 1349.16 985.689 C 1355.81 977.9 1364.95 961.027 1368.19 951.205 C 1280.62 945.599 1197.55 928.856 1131.05 866.449 C 1125 860.77 1122.44 839.923 1119.97 831.256 C 1117.7 823.543 1115 815.967 1111.86 808.565 C 1050.71 665.089 859.985 643.912 727.281 680.153 C 676.598 693.994 621.449 715.38 580.599 748.713 C 571.32 756.425 562.139 764.257 553.061 772.205 C 568.759 771.23 584.936 770.428 600.53 768.773 C 519.952 834.521 473.959 934.716 464.47 1036.98 C 452.484 1166.16 494.652 1286.61 575.952 1386.01 C 650.99 1476.12 751.512 1541.44 864.331 1573.41 C 907.376 1585.54 936.603 1589.86 980.192 1595.1 L 981.209 1596.61 C 974.456 1597.12 969.398 1596.18 962.669 1597.1 C 949.18 1597.44 925.999 1594.59 912.514 1592.71 C 832.115 1581.69 754.873 1554.13 685.656 1511.77 C 569.484 1439.54 474.616 1320.44 445.108 1185.99 C 422.278 1081.97 426.799 954.439 480.089 860.005 C 498.849 826.761 523.027 798.212 543.847 766.461 C 589.664 696.591 657.551 662.983 736.117 645.421 C 870 680 1020 740 1140.21 796.117 Z"/>

<!-- Light green sliver at bottom -->
<path fill="rgb(241,255,254)" d="M 980.192 1595.1 C 989.893 1595.46 999.57 1596.33 1009.18 1597.71 C 995.139 1598.05 976.435 1599 962.669 1597.1 C 969.398 1596.18 974.456 1597.12 981.209 1596.61 L 980.192 1595.1 z"/>

<!-- Duck eye -->
<path fill="rgb(91,92,92)" d="M 950.376 800.381 C 978.997 798.68 1001.55 815.758 1011.17 841.994 C 1017.27 858.638 1017.95 872.865 1018.26 890.23 C 1010.15 882.887 1005.39 881.654 995.248 879.335 C 987.412 882.043 984.469 883.771 977.179 887.951 C 945.815 904.141 907.106 891.078 903.322 853.415 C 901.92 840.674 905.744 827.91 913.922 818.041 C 923.731 806.279 935.761 801.832 950.376 800.381 z"/>

<!-- Eye highlight -->
<path fill="rgb(255,255,255)" d="M 969.486 823.673 C 977.256 821.833 985.059 826.595 986.976 834.347 C 988.893 842.099 984.209 849.949 976.477 851.942 C 968.635 853.965 960.65 849.2 958.706 841.338 C 956.761 833.476 961.605 825.539 969.486 823.673 z"/>

<!-- Beak/mouth line -->
<path fill="rgb(255,255,255)" d="M 1282.34 996.971 L 1283.1 997.248 L 1282.5 998.61 C 1261.84 1011.69 1240.27 1022.59 1216.15 1028.76 C 1171.55 1040.18 1120.13 1045.15 1075.68 1031.32 C 1063.31 1027.47 1049.39 1019.96 1038.34 1013.61 C 1032.35 1009.39 1029.42 1006.68 1024.31 1001.6 C 1038.25 1005.95 1054.03 1010.72 1068.31 1013.25 C 1130.35 1024.25 1225.12 1023.62 1282.34 996.971 z"/>

<!-- Wing detail -->
<path fill="rgb(255,255,255)" d="M 1108.64 885.879 C 1122.62 885.645 1129.9 897.404 1140.6 905.552 C 1153.73 915.551 1167.25 924.004 1181.88 931.642 C 1186.3 933.949 1190.02 934.767 1193.93 938.111 C 1192.14 939.634 1190.99 938.894 1187.77 938.693 C 1167.96 936.247 1069.04 921.979 1108.64 885.879 z"/>

<!-- Purple code > bracket -->
<path fill="rgb(183,183,231)" d="M 1252.43 1248.43 C 1261.56 1254.6 1276.19 1262.74 1285.93 1268.57 L 1361.95 1313.95 L 1362.32 1326.26 C 1352.6 1333.05 1338.81 1340.94 1328.42 1347.22 L 1264.38 1385.51 L 1253.75 1392.02 L 1234.7 1364.01 C 1259.22 1349.34 1285.83 1334.88 1310.85 1320.96 C 1288.88 1309.77 1257.78 1290.57 1235.62 1277.61 L 1252.43 1248.43 z"/>

<!-- Purple code < bracket -->
<path fill="rgb(183,183,231)" d="M 1083.95 1247.24 C 1088.54 1253.8 1096.42 1269.09 1100.62 1276.78 C 1076.69 1291.69 1049.12 1304.54 1024.12 1320.39 C 1047.38 1332.47 1077.49 1349.8 1099.74 1363.53 C 1093.37 1373.01 1086.66 1381.33 1080.74 1391.33 L 1069.4 1384.41 C 1037.77 1365.93 1004.65 1344.83 972.979 1325.72 L 973.031 1313.59 C 1006.03 1292.07 1049.34 1268.31 1083.95 1247.24 z"/>

<!-- Purple code / slash -->
<path fill="rgb(183,183,231)" d="M 1186.48 1225.67 C 1195.85 1227.28 1207.12 1230.39 1216.49 1232.72 C 1193.36 1295.17 1167.61 1357.33 1144.01 1419.63 C 1135.17 1416.79 1123.06 1414.21 1113.82 1411.98 C 1138.36 1352.14 1163.74 1286.19 1186.48 1225.67 z"/>
</svg>
